<?xml version="1.0" encoding="UTF-8"?><svg id="b" xmlns="http://www.w3.org/2000/svg" viewBox="0 0 256 386.33"><g id="c"><path d="m1.27,0l3.05,2.14c9.49,6.6,232.19,161.83,238.4,166.47,8.79,6.17,13.28,13.81,13.28,22.67v4.4c-.1,6.84-2.56,16.47-13.28,24.52l-.04.03c-5.17,3.69-57.75,40.12-113.42,78.7-4.9,3.4-9.86,6.83-14.83,10.27l-3.31,2.3c-49.17,34.07-98.51,68.28-105.18,73l-2.56,1.84-.51-.86c-.18-.32-.91-1.54-.72-1.97h-.11v-32.03c0-10.92,1.21-16.18,13.37-24.28,5.18-3.33,49.53-33.95,94.58-65.13l5.3-3.67c41.51-28.73,82.34-57.03,92.36-63.97C186.48,179.72,27.8,69.55,16.92,61.59l-1.29-.93C7.6,54.84,1.27,50.25,1.27,38.13V0Zm20.59,111.36c10.74,6.9,114.56,78.95,115.61,79.7l2.36,1.63-2.39,1.6s-7.02,4.67-14.81,10.12c-6.67,4.89-12.9,7.33-19.1,7.33-5.51,0-10.96-1.92-16.71-5.73-6.12-4.09-23.36-15.98-40.82-28.06l-2.38-1.65C22.21,161.46,1.22,146.86.83,146.59l-.83-.58v-24.47c0-5.62,2.42-10.07,6.67-12.22,4.55-2.32,10.23-1.56,15.2,2.04h0Z" fill="#3e4d5a"/></g></svg>