<svg viewBox="0 0 347.93 424.68" xmlns="http://www.w3.org/2000/svg"><rect fill="#d5d7d8" height="360" rx="13.99" width="274.67" x="73.27" y="29.34"/><path d="m104.11 59.34h211.51v34h-211.51z" fill="#fff"/><path d="m104.11 127.34h211.51v34h-211.51z" fill="#fff"/><rect fill="#95979a" height="34" rx="15.79" width="211.51" x="104.11" y="331.53"/><path d="m104.11 182.34h211.51v127.19h-211.51z" fill="#fff"/><path d="m1.4 0 3.35 2.35c10.43 7.26 255.23 177.89 262.06 182.99 9.66 6.78 14.6 15.18 14.6 24.92v4.84c-.11 7.52-2.81 18.1-14.6 26.95l-.04.03c-5.68 4.06-63.48 44.1-124.68 86.51-5.39 3.74-10.84 7.51-16.3 11.29l-3.64 2.53c-54.05 37.45-108.29 75.06-115.62 80.25l-2.81 2.02-.56-.95c-.2-.35-1-1.69-.79-2.17h-.12v-35.21c0-12 1.33-17.79 14.7-26.69 5.69-3.66 54.45-37.32 103.97-71.59l5.83-4.03c45.63-31.58 90.51-62.69 101.53-70.32-23.29-16.16-197.72-137.27-209.68-146.02l-1.42-1.02c-8.83-6.4-15.79-11.44-15.79-24.77v-41.91zm22.63 122.41c11.81 7.58 125.93 86.79 127.08 87.61l2.59 1.79-2.63 1.76s-7.72 5.13-16.28 11.12c-7.33 5.38-14.18 8.06-21 8.06-6.06 0-12.05-2.11-18.37-6.3-6.73-4.5-25.68-17.57-44.87-30.84l-2.62-1.81c-23.52-16.32-46.59-32.36-47.02-32.66l-.91-.64v-26.9c0-6.18 2.66-11.07 7.33-13.43 5-2.55 11.25-1.71 16.71 2.24z" fill="#3e4d5a"/></svg>